<svg width="51" height="50" viewBox="0 0 51 50" fill="none" xmlns="http://www.w3.org/2000/svg">
<path d="M50.5 39.5833C50.5 40.7354 49.5667 41.6667 48.4167 41.6667H42.1667V47.9167C42.1667 49.0687 41.2333 50 40.0833 50C38.9333 50 38 49.0687 38 47.9167V41.6667H31.75C30.6 41.6667 29.6667 40.7354 29.6667 39.5833C29.6667 38.4312 30.6 37.5 31.75 37.5H38V31.25C38 30.0979 38.9333 29.1667 40.0833 29.1667C41.2333 29.1667 42.1667 30.0979 42.1667 31.25V37.5H48.4167C49.5667 37.5 50.5 38.4312 50.5 39.5833ZM33.8333 14.5833C34.9812 14.5833 35.9167 13.65 35.9167 12.5C35.9167 11.35 34.9812 10.4167 33.8333 10.4167C32.6854 10.4167 31.75 11.35 31.75 12.5C31.75 13.65 32.6854 14.5833 33.8333 14.5833ZM10.5167 19.0646L0.5 29.0812V10.4167C0.5 4.67292 5.17292 0 10.9167 0H35.9167C41.6604 0 46.3333 4.67292 46.3333 10.4167V25H40.0833C36.7812 25 34.0729 27.5729 33.85 30.8187L22.0958 19.0646C18.9021 15.8708 13.7083 15.8708 10.5167 19.0646ZM27.5833 12.5C27.5833 15.9458 30.3875 18.75 33.8333 18.75C37.2792 18.75 40.0833 15.9458 40.0833 12.5C40.0833 9.05417 37.2792 6.25 33.8333 6.25C30.3875 6.25 27.5833 9.05417 27.5833 12.5ZM25.5 39.5833C25.5 36.5354 27.6917 33.9917 30.5833 33.4437L19.15 22.0104C17.5833 20.4458 15.0333 20.4437 13.4625 22.0104L0.5 34.9729V35.4167C0.5 41.1604 5.17292 45.8333 10.9167 45.8333H25.5V39.5833Z" fill="#9A9A9A"/>
</svg>
