<svg width="44" height="44" viewBox="0 0 44 44" fill="none" xmlns="http://www.w3.org/2000/svg">
<ellipse cx="22.1974" cy="22" rx="20.1974" ry="20" stroke="black" stroke-width="2.10526"/>
<path d="M27.657 12.3312C27.6567 12.6979 27.5108 13.0494 27.2513 13.3086L20.177 20.3829C19.9628 20.597 19.793 20.8512 19.6771 21.1309C19.5612 21.4106 19.5016 21.7104 19.5016 22.0132C19.5016 22.316 19.5612 22.6158 19.6771 22.8955C19.793 23.1753 19.9628 23.4294 20.177 23.6435L27.2421 30.7086C27.494 30.9695 27.6335 31.3189 27.6303 31.6815C27.6271 32.0442 27.4817 32.3911 27.2252 32.6475C26.9688 32.904 26.6219 33.0494 26.2592 33.0526C25.8966 33.0557 25.5472 32.9163 25.2863 32.6644L18.2212 25.6048C17.2712 24.6529 16.7377 23.3631 16.7377 22.0183C16.7377 20.6735 17.2712 19.3836 18.2212 18.4318L25.2955 11.3528C25.489 11.1593 25.7355 11.0274 26.0039 10.974C26.2723 10.9206 26.5505 10.948 26.8033 11.0527C27.0561 11.1574 27.2722 11.3348 27.4241 11.5624C27.5761 11.79 27.6572 12.0575 27.657 12.3312Z" fill="black"/>
</svg>
