<svg width="23" height="20" viewBox="0 0 23 20" fill="none" xmlns="http://www.w3.org/2000/svg">
<path fill-rule="evenodd" clip-rule="evenodd" d="M5.12436 2.4241C3.46537 3.18243 2.25 4.98614 2.25 7.13701C2.25 9.3344 3.14922 11.0281 4.43829 12.4797C5.50072 13.676 6.78684 14.6675 8.04113 15.6345C8.33904 15.8642 8.63515 16.0925 8.92605 16.3218C9.45208 16.7365 9.9213 17.1004 10.3736 17.3647C10.8261 17.6292 11.1904 17.7499 11.5 17.7499C11.8096 17.7499 12.1739 17.6292 12.6264 17.3647C13.0787 17.1004 13.5479 16.7365 14.074 16.3218C14.3649 16.0925 14.661 15.8642 14.9589 15.6345C16.2132 14.6675 17.4993 13.676 18.5617 12.4797C19.8508 11.0281 20.75 9.3344 20.75 7.13701C20.75 4.98614 19.5346 3.18243 17.8756 2.4241C16.2639 1.68739 14.0983 1.88249 12.0404 4.02065C11.899 4.16754 11.7039 4.25054 11.5 4.25054C11.2961 4.25054 11.101 4.16754 10.9596 4.02065C8.90166 1.88249 6.73607 1.68739 5.12436 2.4241ZM11.5 2.45873C9.18795 0.390151 6.59896 0.10078 4.50076 1.05987C2.28471 2.07283 0.75 4.42494 0.75 7.13701C0.75 9.8025 1.8605 11.836 3.31672 13.4757C4.48287 14.7888 5.91022 15.8879 7.17083 16.8585C7.45659 17.0785 7.73378 17.292 7.99742 17.4998C8.50965 17.9036 9.05954 18.3342 9.6168 18.6598C10.1739 18.9853 10.8096 19.2499 11.5 19.2499C12.1904 19.2499 12.8261 18.9853 13.3832 18.6598C13.9405 18.3342 14.4903 17.9036 15.0026 17.4998C15.2662 17.292 15.5434 17.0785 15.8292 16.8585C17.0898 15.8879 18.5171 14.7888 19.6833 13.4757C21.1395 11.836 22.25 9.8025 22.25 7.13701C22.25 4.42494 20.7153 2.07283 18.4992 1.05987C16.401 0.10078 13.8121 0.390151 11.5 2.45873Z" fill="#666666"/>
</svg>
