<svg width="63" height="66" viewBox="0 0 63 66" fill="none" xmlns="http://www.w3.org/2000/svg">
<path d="M61.4449 11.36L54.1699 18.635C52.722 20.0829 50.245 19.0565 50.245 17.0092V13.8398H31.0859C20.521 13.8398 11.9267 22.434 11.9267 32.9989C11.9267 34.9231 12.2114 36.8198 12.7697 38.6372C13.4348 40.8049 12.2168 43.1013 10.0491 43.7664C9.6495 43.8895 9.24168 43.947 8.84208 43.947C7.08491 43.947 5.46185 42.8139 4.91719 41.0458C4.11798 38.4456 3.71563 35.7387 3.71563 32.9989C3.71563 17.907 15.9939 5.6287 31.0859 5.6287H50.245V2.45923C50.245 0.409202 52.722 -0.614445 54.1699 0.83344L61.4449 8.10844C62.3426 9.00619 62.3426 10.4623 61.4449 11.36ZM52.1226 22.2315C49.9549 22.8966 48.7369 25.1957 49.402 27.3634C49.9604 29.1835 50.245 31.0775 50.245 33.0017C50.245 43.5638 41.6508 52.1608 31.0859 52.1608H11.9267V48.9913C11.9267 46.9413 9.44969 45.9177 8.00181 47.3656L0.726805 54.6406C-0.170939 55.5383 -0.170939 56.9944 0.726805 57.8921L8.00181 65.1671C9.44969 66.615 11.9267 65.5886 11.9267 63.5414V60.3719H31.0859C46.1778 60.3719 58.4561 48.0936 58.4561 33.0017C58.4561 30.2619 58.051 27.555 57.2545 24.9548C56.5867 22.7898 54.3013 21.5691 52.1226 22.2342V22.2315Z" fill="#2A48DE"/>
<path d="M31.0164 47.0575C30.3678 47.0575 29.7204 46.9676 29.0906 46.7876L21.2308 44.5428C18.7359 43.83 16.9936 41.5197 16.9936 38.9243V23.6862C16.9936 23.0412 17.5171 22.5177 18.1622 22.5177C18.8072 22.5177 19.3307 23.0412 19.3307 23.6862V38.9243C19.3307 40.482 20.3766 41.8679 21.8735 42.2956L29.7333 44.5404C30.5735 44.78 31.4604 44.78 32.3018 44.5404L40.1604 42.2956C41.6573 41.8679 42.7032 40.482 42.7032 38.9243V22.5177C42.7032 21.8726 43.2267 21.3491 43.8717 21.3491C44.5168 21.3491 45.0403 21.8726 45.0403 22.5177V38.9243C45.0403 41.5185 43.298 43.8288 40.8031 44.5428L32.9433 46.7876C32.3123 46.9676 31.6649 47.0575 31.0175 47.0575H31.0164ZM38.0546 19.1931C37.2039 18.8788 36.2562 18.9571 35.4137 19.2936L34.3888 19.7026C33.0578 20.2343 32.1838 21.5244 32.1838 22.9582V39.8977C31.8005 39.9959 31.409 40.0461 31.0152 40.0461C30.6214 40.0461 30.2299 39.9959 29.8466 39.8977V22.9582C29.8466 21.5244 28.9737 20.2343 27.6416 19.7026L26.6156 19.2924C25.773 18.9559 24.8253 18.8776 23.9746 19.1931C22.5548 19.719 21.6655 21.0429 21.6655 22.4908V37.3479C21.6655 38.9126 22.7032 40.288 24.2071 40.7181L29.0871 42.1133C29.7158 42.2921 30.3643 42.3821 31.0129 42.3821C31.6614 42.3821 32.31 42.2921 32.9387 42.1133L37.8186 40.7181C39.3237 40.288 40.3602 38.9126 40.3602 37.3479V22.4908C40.3602 21.0429 39.4698 19.7178 38.05 19.1931H38.0546Z" fill="#2A48DE"/>
</svg>
