<svg width="15" height="17" viewBox="0 0 15 17" fill="none" xmlns="http://www.w3.org/2000/svg">
<path d="M7.31469 11.0442C7.06165 11.0442 6.81897 11.1448 6.64004 11.3237C6.46112 11.5026 6.3606 11.7453 6.3606 11.9983V12.5072C6.3606 12.9626 6.17966 13.3995 5.85759 13.7215C5.53553 14.0436 5.09871 14.2245 4.64324 14.2245H3.62554C3.17007 14.2245 2.73325 14.0436 2.41118 13.7215C2.08911 13.3995 1.90818 12.9626 1.90818 12.5072V4.49282C1.90818 4.03735 2.08911 3.60053 2.41118 3.27846C2.73325 2.95639 3.17007 2.77546 3.62554 2.77546H4.64324C5.09871 2.77546 5.53553 2.95639 5.85759 3.27846C6.17966 3.60053 6.3606 4.03735 6.3606 4.49282V5.00167C6.3606 5.25471 6.46112 5.49738 6.64004 5.67631C6.81897 5.85524 7.06165 5.95576 7.31469 5.95576C7.56773 5.95576 7.8104 5.85524 7.98933 5.67631C8.16826 5.49738 8.26878 5.25471 8.26878 5.00167V4.49282C8.26777 3.53158 7.88547 2.60999 7.20576 1.93029C6.52606 1.25059 5.60448 0.868289 4.64324 0.867279H3.62554C2.6643 0.868289 1.74271 1.25059 1.06301 1.93029C0.38331 2.60999 0.00101024 3.53158 0 4.49282V12.5072C0.00101024 13.4684 0.38331 14.39 1.06301 15.0697C1.74271 15.7494 2.6643 16.1317 3.62554 16.1327H4.64324C5.60448 16.1317 6.52606 15.7494 7.20576 15.0697C7.88547 14.39 8.26777 13.4684 8.26878 12.5072V11.9983C8.26878 11.7453 8.16826 11.5026 7.98933 11.3237C7.8104 11.1448 7.56773 11.0442 7.31469 11.0442Z" fill="black"/>
<path d="M14.3501 6.92575L11.4332 4.00878C11.3446 3.9202 11.2393 3.84994 11.1236 3.80201C11.0078 3.75409 10.8837 3.72944 10.7584 3.72947C10.6331 3.7295 10.509 3.75421 10.3933 3.80219C10.2775 3.85016 10.1724 3.92047 10.0838 4.0091C9.90488 4.18808 9.80441 4.4308 9.80447 4.68386C9.8045 4.80917 9.8292 4.93324 9.87718 5.04899C9.92516 5.16474 9.99547 5.26991 10.0841 5.3585L12.2537 7.5281L4.45242 7.54591C4.19938 7.54591 3.95671 7.64643 3.77778 7.82535C3.59885 8.00428 3.49833 8.24696 3.49833 8.5C3.49833 8.75304 3.59885 8.99571 3.77778 9.17464C3.95671 9.35357 4.19938 9.45409 4.45242 9.45409L12.2874 9.43628L10.0822 11.6415C9.9032 11.8204 9.80262 12.0631 9.80256 12.3161C9.8025 12.5692 9.90297 12.8119 10.0819 12.9909C10.2608 13.1699 10.5034 13.2705 10.7565 13.2705C11.0096 13.2706 11.2523 13.1701 11.4313 12.9912L14.3482 10.0742C14.7653 9.65658 14.9996 9.0906 15 8.50039C15.0004 7.91018 14.7667 7.34391 14.3501 6.92575Z" fill="black"/>
</svg>
