<svg width="182" height="42" viewBox="0 0 182 42" fill="none" xmlns="http://www.w3.org/2000/svg">
<path d="M31.9959 9.90415L28.2656 13.6344C27.5233 14.3768 26.2532 13.8505 26.2532 12.8008V11.1756H16.4294C11.0122 11.1756 6.60554 15.5823 6.60554 20.9994C6.60554 21.986 6.75149 22.9586 7.03779 23.8905C7.37881 25.002 6.7543 26.1794 5.6428 26.5204C5.43791 26.5836 5.2288 26.6131 5.0239 26.6131C4.12292 26.6131 3.2907 26.032 3.01142 25.1255C2.60163 23.7922 2.39533 22.4043 2.39533 20.9994C2.39533 13.2611 8.69099 6.96542 16.4294 6.96542H26.2532V5.34028C26.2532 4.28914 27.5233 3.76426 28.2656 4.50666L31.9959 8.23691C32.4562 8.69722 32.4562 9.44383 31.9959 9.90415ZM27.2159 15.4785C26.1044 15.8195 25.4799 16.9983 25.8209 18.1098C26.1072 19.0431 26.2532 20.0143 26.2532 21.0009C26.2532 26.4166 21.8465 30.8247 16.4294 30.8247H6.60554V29.1995C6.60554 28.1484 5.33546 27.6235 4.59306 28.3659L0.862815 32.0961C0.402499 32.5565 0.402499 33.3031 0.862815 33.7634L4.59306 37.4936C5.33546 38.236 6.60554 37.7098 6.60554 36.66V35.0349H16.4294C24.1677 35.0349 30.4634 28.7392 30.4634 21.0009C30.4634 19.596 30.2557 18.2081 29.8473 16.8748C29.5049 15.7648 28.333 15.1388 27.2159 15.4799V15.4785Z" fill="#2A48DE"/>
<path d="M16.3938 28.208C16.0612 28.208 15.7293 28.1618 15.4063 28.0696L11.3762 26.9185C10.097 26.553 9.20361 25.3685 9.20361 24.0377V16.2244C9.20361 15.8936 9.47205 15.6252 9.80279 15.6252C10.1335 15.6252 10.402 15.8936 10.402 16.2244V24.0377C10.402 24.8364 10.9382 25.547 11.7058 25.7663L15.7359 26.9173C16.1667 27.0402 16.6215 27.0402 17.0529 26.9173L21.0823 25.7663C21.8499 25.547 22.3862 24.8364 22.3862 24.0377V15.6252C22.3862 15.2945 22.6546 15.026 22.9853 15.026C23.3161 15.026 23.5845 15.2945 23.5845 15.6252V24.0377C23.5845 25.3679 22.6911 26.5524 21.4119 26.9185L17.3818 28.0696C17.0583 28.1618 16.7263 28.208 16.3944 28.208H16.3938ZM20.0026 13.9205C19.5664 13.7594 19.0805 13.7995 18.6485 13.9721L18.123 14.1818C17.4405 14.4544 16.9923 15.1159 16.9923 15.8511V24.5368C16.7958 24.5871 16.5951 24.6129 16.3932 24.6129C16.1912 24.6129 15.9905 24.5871 15.794 24.5368V15.8511C15.794 15.1159 15.3464 14.4544 14.6633 14.1818L14.1373 13.9715C13.7052 13.7989 13.2193 13.7588 12.7831 13.9205C12.0551 14.1902 11.5991 14.869 11.5991 15.6114V23.2294C11.5991 24.0317 12.1312 24.7369 12.9023 24.9574L15.4045 25.6728C15.7269 25.7645 16.0594 25.8107 16.392 25.8107C16.7245 25.8107 17.0571 25.7645 17.3794 25.6728L19.8816 24.9574C20.6533 24.7369 21.1848 24.0317 21.1848 23.2294V15.6114C21.1848 14.869 20.7282 14.1896 20.0002 13.9205H20.0026Z" fill="#2A48DE"/>
<path d="M54.8567 20.6134C55.9736 20.8514 56.8707 21.4099 57.5481 22.2887C58.2255 23.1492 58.5642 24.1378 58.5642 25.2546C58.5642 26.8658 57.9966 28.1474 56.8615 29.0994C55.7447 30.0331 54.1793 30.5 52.1654 30.5H43.1851V11.2212H51.8633C53.8223 11.2212 55.3511 11.6698 56.4496 12.5669C57.5664 13.464 58.1248 14.6815 58.1248 16.2194C58.1248 17.3545 57.8227 18.2974 57.2185 19.0481C56.6327 19.7987 55.8454 20.3205 54.8567 20.6134ZM47.8812 19.0206H50.957C51.726 19.0206 52.3119 18.8558 52.7147 18.5263C53.1358 18.1784 53.3463 17.6749 53.3463 17.0158C53.3463 16.3567 53.1358 15.8532 52.7147 15.5054C52.3119 15.1575 51.726 14.9836 50.957 14.9836H47.8812V19.0206ZM51.3415 26.7101C52.1288 26.7101 52.733 26.5362 53.1541 26.1884C53.5935 25.8222 53.8132 25.3004 53.8132 24.623C53.8132 23.9456 53.5843 23.4146 53.1266 23.0302C52.6872 22.6457 52.0739 22.4534 51.2866 22.4534H47.8812V26.7101H51.3415ZM69.0874 30.7197C67.5861 30.7197 66.2312 30.3993 65.0229 29.7585C63.8328 29.1177 62.8899 28.2023 62.1942 27.0122C61.5168 25.8222 61.1781 24.4307 61.1781 22.8379C61.1781 21.2634 61.526 19.8811 62.2217 18.691C62.9174 17.4827 63.8694 16.5581 65.0778 15.9173C66.2862 15.2765 67.641 14.9561 69.1423 14.9561C70.6436 14.9561 71.9984 15.2765 73.2068 15.9173C74.4151 16.5581 75.3672 17.4827 76.0629 18.691C76.7586 19.8811 77.1065 21.2634 77.1065 22.8379C77.1065 24.4124 76.7494 25.8039 76.0354 27.0122C75.3397 28.2023 74.3785 29.1177 73.1518 29.7585C71.9435 30.3993 70.5886 30.7197 69.0874 30.7197ZM69.0874 26.6552C69.9845 26.6552 70.7443 26.3257 71.3668 25.6666C72.0075 25.0075 72.3279 24.0646 72.3279 22.8379C72.3279 21.6112 72.0167 20.6684 71.3942 20.0093C70.79 19.3502 70.0394 19.0206 69.1423 19.0206C68.2269 19.0206 67.4671 19.3502 66.8629 20.0093C66.2587 20.6501 65.9566 21.5929 65.9566 22.8379C65.9566 24.0646 66.2495 25.0075 66.8354 25.6666C67.4396 26.3257 68.1902 26.6552 69.0874 26.6552ZM87.3972 30.7197C85.8959 30.7197 84.5411 30.3993 83.3328 29.7585C82.1427 29.1177 81.1998 28.2023 80.5041 27.0122C79.8267 25.8222 79.488 24.4307 79.488 22.8379C79.488 21.2634 79.8358 19.8811 80.5316 18.691C81.2273 17.4827 82.1793 16.5581 83.3877 15.9173C84.596 15.2765 85.9509 14.9561 87.4522 14.9561C88.9535 14.9561 90.3083 15.2765 91.5166 15.9173C92.725 16.5581 93.677 17.4827 94.3728 18.691C95.0685 19.8811 95.4163 21.2634 95.4163 22.8379C95.4163 24.4124 95.0593 25.8039 94.3453 27.0122C93.6496 28.2023 92.6884 29.1177 91.4617 29.7585C90.2534 30.3993 88.8985 30.7197 87.3972 30.7197ZM87.3972 26.6552C88.2944 26.6552 89.0542 26.3257 89.6766 25.6666C90.3174 25.0075 90.6378 24.0646 90.6378 22.8379C90.6378 21.6112 90.3266 20.6684 89.7041 20.0093C89.0999 19.3502 88.3493 19.0206 87.4522 19.0206C86.5367 19.0206 85.7769 19.3502 85.1728 20.0093C84.5686 20.6501 84.2665 21.5929 84.2665 22.8379C84.2665 24.0646 84.5594 25.0075 85.1453 25.6666C85.7495 26.3257 86.5001 26.6552 87.3972 26.6552ZM108.096 30.5L103.428 24.0737V30.5H98.7316V10.1776H103.428V21.4099L108.069 15.1758H113.864L107.492 22.8654L113.918 30.5H108.096ZM133.778 30.5H129.082L121.228 18.6087V30.5H116.532V11.2212H121.228L129.082 23.1675V11.2212H133.778V30.5ZM152.452 22.5907C152.452 23.0302 152.424 23.4879 152.369 23.9639H141.741C141.815 24.9159 142.117 25.6483 142.648 26.1609C143.197 26.6552 143.865 26.9024 144.652 26.9024C145.824 26.9024 146.639 26.4081 147.097 25.4194H152.095C151.838 26.4264 151.372 27.3326 150.694 28.1382C150.035 28.9438 149.202 29.5754 148.195 30.0331C147.188 30.4908 146.062 30.7197 144.817 30.7197C143.316 30.7197 141.979 30.3993 140.808 29.7585C139.636 29.1177 138.72 28.2023 138.061 27.0122C137.402 25.8222 137.073 24.4307 137.073 22.8379C137.073 21.2451 137.393 19.8536 138.034 18.6636C138.693 17.4735 139.608 16.5581 140.78 15.9173C141.952 15.2765 143.298 14.9561 144.817 14.9561C146.3 14.9561 147.618 15.2674 148.772 15.8899C149.925 16.5123 150.822 17.4003 151.463 18.5537C152.122 19.7072 152.452 21.0528 152.452 22.5907ZM147.646 21.3549C147.646 20.5494 147.371 19.9086 146.822 19.4325C146.273 18.9565 145.586 18.7185 144.762 18.7185C143.975 18.7185 143.307 18.9474 142.757 19.4051C142.227 19.8628 141.897 20.5127 141.769 21.3549H147.646ZM161.987 30.7197C160.651 30.7197 159.461 30.4908 158.417 30.0331C157.373 29.5754 156.55 28.9529 155.945 28.1657C155.341 27.3601 155.002 26.463 154.929 25.4743H159.57C159.625 26.0053 159.873 26.4355 160.312 26.7651C160.751 27.0946 161.291 27.2594 161.932 27.2594C162.518 27.2594 162.967 27.1496 163.278 26.9299C163.607 26.6918 163.772 26.3898 163.772 26.0236C163.772 25.5842 163.543 25.2638 163.086 25.0624C162.628 24.8427 161.886 24.6047 160.861 24.3484C159.763 24.092 158.847 23.8266 158.115 23.5519C157.383 23.259 156.751 22.8104 156.22 22.2063C155.689 21.5838 155.424 20.7507 155.424 19.7072C155.424 18.8284 155.662 18.0319 156.138 17.3179C156.632 16.5856 157.346 16.0089 158.28 15.5878C159.232 15.1667 160.358 14.9561 161.658 14.9561C163.58 14.9561 165.09 15.4321 166.189 16.3842C167.306 17.3362 167.947 18.5995 168.111 20.174H163.772C163.699 19.6431 163.461 19.222 163.058 18.9107C162.674 18.5995 162.161 18.4439 161.52 18.4439C160.971 18.4439 160.55 18.5537 160.257 18.7734C159.964 18.9748 159.818 19.2586 159.818 19.6248C159.818 20.0642 160.046 20.3937 160.504 20.6134C160.98 20.8331 161.713 21.0528 162.701 21.2725C163.836 21.5655 164.761 21.8584 165.475 22.1513C166.189 22.426 166.811 22.8837 167.342 23.5245C167.892 24.147 168.175 24.9892 168.194 26.051C168.194 26.9482 167.937 27.7537 167.425 28.4678C166.93 29.1635 166.207 29.7127 165.255 30.1155C164.321 30.5183 163.232 30.7197 161.987 30.7197ZM180.432 26.5179V30.5H178.042C176.34 30.5 175.012 30.0881 174.06 29.2642C173.108 28.422 172.632 27.058 172.632 25.1722V19.0755H170.765V15.1758H172.632V11.4409H177.328V15.1758H180.404V19.0755H177.328V25.2272C177.328 25.6849 177.438 26.0144 177.658 26.2158C177.878 26.4172 178.244 26.5179 178.756 26.5179H180.432Z" fill="#2A48DE"/>
</svg>
