<svg width="30" height="31" viewBox="0 0 30 31" fill="none" xmlns="http://www.w3.org/2000/svg">
<path d="M11.25 23.2124H0V11.9624C0 9.73737 0.659801 7.5623 1.89597 5.71224C3.13213 3.86219 4.88914 2.42025 6.94481 1.56876C9.00048 0.717277 11.2625 0.494489 13.4448 0.928573C15.6271 1.36266 17.6316 2.43412 19.205 4.00746C20.7783 5.5808 21.8498 7.58536 22.2838 9.76764C22.7179 11.9499 22.4951 14.2119 21.6436 16.2676C20.7922 18.3233 19.3502 20.0803 17.5002 21.3164C15.6501 22.5526 13.475 23.2124 11.25 23.2124ZM25 12.0624C24.9712 15.6737 23.5239 19.129 20.9702 21.6826C18.4166 24.2363 14.9613 25.6837 11.35 25.7124C12.2268 27.2311 13.4876 28.4925 15.0058 29.3701C16.524 30.2477 18.2464 30.7106 20 30.7124H30V20.7124C29.9982 18.9588 29.5353 17.2365 28.6577 15.7182C27.7801 14.2 26.5187 12.9392 25 12.0624Z" fill="#2A48DE"/>
</svg>
