<svg width="15" height="17" viewBox="0 0 15 17" fill="none" xmlns="http://www.w3.org/2000/svg">
<path d="M0 12.8999H3.14281V16.0427H0V12.8999ZM3.14281 4.10007V0.95726H1.25712C0.562563 0.95726 0 1.51982 0 2.21438V4.10007H3.14281ZM7.54274 4.10007V2.21438C7.54274 1.51982 6.98018 0.95726 6.28562 0.95726H4.39993V4.10007H7.54274ZM0 5.35719V11.6428H3.14281V5.35719H0ZM4.39993 5.35719V11.6428H7.54274V5.35719H4.39993ZM4.39993 16.0427H7.54274V12.8999H4.39993V16.0427ZM8.53524 5.54639L10.7151 12.0438L13.6982 11.0538L11.5184 4.5564L8.53524 5.54639ZM11.1117 13.2368L12.0168 16.0151L15 15.0251L14.0949 12.2469L11.1117 13.2368ZM8.13862 4.35401L11.1218 3.36465L10.617 1.84668C10.3983 1.18794 9.68677 0.830919 9.02803 1.04966L8.43153 1.24766C7.7728 1.4664 7.41577 2.17793 7.63451 2.83666L8.13925 4.35464L8.13862 4.35401Z" fill="black"/>
</svg>
