<svg width="18" height="20" viewBox="0 0 18 20" fill="none" xmlns="http://www.w3.org/2000/svg">
<path d="M17.8483 11.3033L16.276 5.64658C15.8152 3.98939 14.8137 2.5338 13.4306 1.51117C12.0475 0.488543 10.3623 -0.0424307 8.64282 0.00265114C6.92334 0.047733 5.26827 0.666283 3.94068 1.75998C2.6131 2.85368 1.6892 4.35975 1.31583 6.03881L0.098589 11.5127C-0.0358656 12.1175 -0.032757 12.7448 0.107685 13.3483C0.248128 13.9518 0.522318 14.516 0.910012 14.9993C1.29771 15.4827 1.78901 15.8728 2.34764 16.1408C2.90627 16.4088 3.51797 16.548 4.13757 16.548H5.0594C5.24932 17.4833 5.75675 18.3241 6.49571 18.9281C7.23467 19.5321 8.15972 19.8621 9.11411 19.8621C10.0685 19.8621 10.9935 19.5321 11.7325 18.9281C12.4715 18.3241 12.9789 17.4833 13.1688 16.548H13.8623C14.5001 16.548 15.1293 16.4006 15.7007 16.1172C16.2722 15.8338 16.7703 15.4222 17.1564 14.9144C17.5424 14.4066 17.8057 13.8164 17.9259 13.19C18.0461 12.5636 18.019 11.9179 17.8483 11.3033ZM9.11411 18.2029C8.6025 18.2008 8.10405 18.0407 7.68693 17.7444C7.26982 17.4482 6.95442 17.0303 6.78389 16.548H11.4443C11.2738 17.0303 10.9584 17.4482 10.5413 17.7444C10.1242 18.0407 9.62571 18.2008 9.11411 18.2029ZM15.8383 13.9124C15.6077 14.2183 15.309 14.4662 14.9658 14.6364C14.6226 14.8066 14.2445 14.8945 13.8614 14.893H4.13757C3.76585 14.8929 3.39889 14.8094 3.06377 14.6485C2.72866 14.4877 2.43394 14.2536 2.20138 13.9636C1.96882 13.6736 1.80435 13.3351 1.72011 12.9731C1.63587 12.611 1.63402 12.2347 1.71468 11.8718L2.93109 6.39712C3.22432 5.07827 3.94999 3.89528 4.99275 3.03622C6.03551 2.17716 7.33552 1.69132 8.68611 1.65594C10.0367 1.62055 11.3604 2.03766 12.4467 2.84095C13.533 3.64424 14.3196 4.7876 14.6815 6.08929L16.2537 11.746C16.3576 12.1146 16.3741 12.5022 16.302 12.8783C16.2299 13.2544 16.0711 13.6084 15.8383 13.9124Z" fill="#666666"/>
</svg>
