<svg width="15" height="15" viewBox="0 0 15 15" fill="none" xmlns="http://www.w3.org/2000/svg">
<path d="M6.4075 10H3.75V0H9.375C11.1006 0 12.5 1.39938 12.5 3.125V6.4075C12.1006 6.305 11.6819 6.25 11.25 6.25C8.92 6.25 6.9625 7.84375 6.4075 10ZM1.49688 10.0381C0.953125 10.1031 0.436875 10.3112 0 10.6406V3.125C0 1.64 1.045 0.359375 2.5 0.0625V10H1.875C1.74812 10 1.62125 10.0125 1.49688 10.0381ZM7.94312 15H1.875C0.839375 15 0 14.1606 0 13.125C0 12.0894 0.839375 11.25 1.875 11.25H6.25C6.25 12.7437 6.905 14.0837 7.94312 15ZM7.5 11.25C7.5 13.3212 9.17875 15 11.25 15C13.3212 15 15 13.3212 15 11.25C15 9.17875 13.3212 7.5 11.25 7.5C9.17875 7.5 7.5 9.17875 7.5 11.25ZM12.0263 9.37625L12.9638 10.3138C13.0688 10.4188 13.1244 10.5594 13.1244 10.7019C13.1244 10.7725 13.1112 10.8438 13.0825 10.9119C12.9975 11.1169 12.7975 11.25 12.575 11.25H11.8744V13.125C11.8744 13.47 11.595 13.75 11.2494 13.75C10.9038 13.75 10.6244 13.47 10.6244 13.125V11.25H9.92375C9.70187 11.25 9.50125 11.1169 9.41625 10.9119C9.33 10.7063 9.3775 10.4706 9.535 10.3138L10.4725 9.37625C10.9006 8.94812 11.5975 8.94812 12.0256 9.37625H12.0263Z" fill="#212121"/>
</svg>
