<svg width="20" height="20" viewBox="0 0 20 20" fill="none" xmlns="http://www.w3.org/2000/svg">
<path fill-rule="evenodd" clip-rule="evenodd" d="M9 0C4.30558 0 0.5 3.80558 0.5 8.5C0.5 13.1944 4.30558 17 9 17C10.9869 17 12.8146 16.3183 14.2619 15.176L17.9142 18.8283C18.3047 19.2188 18.9379 19.2188 19.3284 18.8283C19.7189 18.4378 19.7189 17.8046 19.3284 17.4141L15.6761 13.7618C16.8183 12.3145 17.5 10.4868 17.5 8.5C17.5 3.80558 13.6944 0 9 0ZM2.5 8.5C2.5 4.91015 5.41015 2 9 2C12.5899 2 15.5 4.91015 15.5 8.5C15.5 12.0899 12.5899 15 9 15C5.41015 15 2.5 12.0899 2.5 8.5Z" fill="white"/>
</svg>
