<svg width="20" height="20" viewBox="0 0 20 20" fill="none" xmlns="http://www.w3.org/2000/svg">
<path d="M14.1401 0.959982L5.11012 3.95998C-0.959883 5.98998 -0.959883 9.29998 5.11012 11.32L7.79012 12.21L8.68012 14.89C10.7001 20.96 14.0201 20.96 16.0401 14.89L19.0501 5.86998C20.3901 1.81998 18.1901 -0.390018 14.1401 0.959982ZM14.4601 6.33998L10.6601 10.16C10.5101 10.31 10.3201 10.38 10.1301 10.38C9.94012 10.38 9.75012 10.31 9.60012 10.16C9.31012 9.86998 9.31012 9.38998 9.60012 9.09998L13.4001 5.27998C13.6901 4.98998 14.1701 4.98998 14.4601 5.27998C14.7501 5.56998 14.7501 6.04998 14.4601 6.33998Z" fill="white"/>
</svg>
