<svg width="15" height="17" viewBox="0 0 15 17" fill="none" xmlns="http://www.w3.org/2000/svg">
<path d="M0.280757 12.6678C0.855322 13.665 2.12952 14.0076 3.12672 13.433C3.1274 13.4326 3.12805 13.4322 3.12874 13.4318L3.43783 13.2533C4.02132 13.7525 4.692 14.1397 5.41612 14.3953V14.7516C5.41612 15.9025 6.34911 16.8355 7.5 16.8355C8.65089 16.8355 9.58388 15.9025 9.58388 14.7516V14.3953C10.3081 14.1393 10.9788 13.7517 11.5622 13.2519L11.8727 13.4312C12.8701 14.0066 14.1452 13.6645 14.7206 12.6671C15.2961 11.6696 14.954 10.3945 13.9565 9.81907L13.6481 9.64126C13.787 8.88582 13.787 8.1114 13.6481 7.35593L13.9565 7.17811C14.954 6.60267 15.2961 5.32759 14.7206 4.33013C14.1452 3.3327 12.8701 2.99059 11.8727 3.56603L11.5636 3.74456C10.9795 3.24596 10.3084 2.85953 9.58388 2.60471V2.24837C9.58388 1.09748 8.65089 0.16449 7.5 0.16449C6.34911 0.16449 5.41612 1.09748 5.41612 2.24837V2.60471C4.69191 2.86074 4.02119 3.24834 3.43783 3.74808L3.12734 3.56818C2.12987 2.99271 0.854801 3.33482 0.279357 4.33225C-0.296087 5.32968 0.0459947 6.60478 1.04346 7.18023L1.35187 7.35804C1.21303 8.11348 1.21303 8.8879 1.35187 9.64337L1.04346 9.82119C0.0487624 10.3982 -0.292212 11.6708 0.280757 12.6678ZM7.5 5.72151C9.03452 5.72151 10.2785 6.96549 10.2785 8.50001C10.2785 10.0345 9.03452 11.2785 7.5 11.2785C5.96548 11.2785 4.7215 10.0345 4.7215 8.50001C4.7215 6.96549 5.96548 5.72151 7.5 5.72151Z" fill="black"/>
</svg>
