<svg width="132" height="132" viewBox="0 0 132 132" fill="none" xmlns="http://www.w3.org/2000/svg">
<path d="M126.729 54.3626L114.987 42.6043V33.2261C114.987 24.2136 107.662 16.877 98.6602 16.877H89.2929L77.551 5.1242C71.3771 -1.0497 60.6233 -1.0497 54.4549 5.1242L42.713 16.877H33.3457C24.3387 16.877 17.0184 24.2082 17.0184 33.2261V42.6043L5.27109 54.3626C-1.08841 60.7384 -1.08841 71.1047 5.27109 77.4806L17.013 89.2388V98.617C17.013 107.63 24.3387 114.966 33.3402 114.966H42.7075L54.4494 126.719C57.5336 129.803 61.6386 131.506 66.0002 131.506C70.3618 131.506 74.4614 129.803 77.5456 126.719L89.2874 114.966H98.6547C107.662 114.966 114.982 107.635 114.982 98.617V89.2388L126.729 77.4806C133.089 71.1047 133.089 60.7384 126.729 54.3626ZM99.8611 56.2349L72.2724 83.5016C68.9207 86.8315 64.5045 88.5019 60.0938 88.5019C55.6831 88.5019 51.2888 86.8369 47.9261 83.518L33.7387 69.8765C31.5989 67.753 31.577 64.303 33.7005 62.1577C35.8294 60.0233 39.2739 59.996 41.4247 62.1195L55.6067 75.7556C58.0795 78.2066 62.1026 78.212 64.5809 75.7556L92.1751 48.4834C94.3259 46.3545 97.7759 46.3763 99.8994 48.5216C102.023 50.667 102.001 54.1115 99.8611 56.2349Z" fill="#0078D4"/>
</svg>
