<svg width="63" height="66" viewBox="0 0 63 66" fill="none" xmlns="http://www.w3.org/2000/svg">
<path d="M61.4449 11.36L54.1699 18.635C52.722 20.0829 50.245 19.0565 50.245 17.0092V13.8398H31.0858C20.5209 13.8398 11.9267 22.434 11.9267 32.9989C11.9267 34.923 12.2113 36.8198 12.7697 38.6372C13.4348 40.8049 12.2168 43.1013 10.0491 43.7664C9.64947 43.8895 9.24165 43.947 8.84204 43.947C7.08488 43.947 5.46182 42.8139 4.91716 41.0458C4.11794 38.4456 3.7156 35.7387 3.7156 32.9989C3.7156 17.907 15.9939 5.6287 31.0858 5.6287H50.245V2.45923C50.245 0.409202 52.722 -0.614445 54.1699 0.83344L61.4449 8.10844C62.3426 9.00619 62.3426 10.4623 61.4449 11.36ZM52.1226 22.2315C49.9549 22.8966 48.7369 25.1957 49.402 27.3634C49.9603 29.1835 50.245 31.0775 50.245 33.0017C50.245 43.5638 41.6507 52.1608 31.0858 52.1608H11.9267V48.9913C11.9267 46.9413 9.44966 45.9177 8.00178 47.3656L0.726774 54.6406C-0.170969 55.5383 -0.170969 56.9944 0.726774 57.8921L8.00178 65.1671C9.44966 66.615 11.9267 65.5886 11.9267 63.5414V60.3719H31.0858C46.1778 60.3719 58.456 48.0936 58.456 33.0017C58.456 30.2619 58.051 27.555 57.2545 24.9548C56.5867 22.7898 54.3013 21.5691 52.1226 22.2342V22.2315Z" fill="white"/>
<path d="M31.0163 47.0575C30.3678 47.0575 29.7204 46.9676 29.0905 46.7876L21.2307 44.5428C18.7359 43.83 16.9935 41.5197 16.9935 38.9243V23.6862C16.9935 23.0412 17.517 22.5177 18.1621 22.5177C18.8071 22.5177 19.3307 23.0412 19.3307 23.6862V38.9243C19.3307 40.482 20.3765 41.8679 21.8735 42.2956L29.7332 44.5404C30.5734 44.78 31.4604 44.78 32.3017 44.5404L40.1603 42.2956C41.6573 41.8679 42.7031 40.482 42.7031 38.9243V22.5177C42.7031 21.8726 43.2266 21.3491 43.8717 21.3491C44.5167 21.3491 45.0403 21.8726 45.0403 22.5177V38.9243C45.0403 41.5185 43.2979 43.8288 40.803 44.5428L32.9433 46.7876C32.3122 46.9676 31.6649 47.0575 31.0175 47.0575H31.0163ZM38.0546 19.1931C37.2039 18.8788 36.2561 18.9571 35.4136 19.2936L34.3888 19.7026C33.0578 20.2343 32.1837 21.5244 32.1837 22.9582V39.8977C31.8004 39.9959 31.4089 40.0461 31.0151 40.0461C30.6213 40.0461 30.2299 39.9959 29.8466 39.8977V22.9582C29.8466 21.5244 28.9737 20.2343 27.6415 19.7026L26.6155 19.2924C25.773 18.9559 24.8253 18.8776 23.9745 19.1931C22.5547 19.719 21.6655 21.0429 21.6655 22.4908V37.3479C21.6655 38.9126 22.7031 40.288 24.2071 40.7181L29.087 42.1133C29.7157 42.2921 30.3642 42.3821 31.0128 42.3821C31.6614 42.3821 32.3099 42.2921 32.9386 42.1133L37.8185 40.7181C39.3236 40.288 40.3601 38.9126 40.3601 37.3479V22.4908C40.3601 21.0429 39.4697 19.7178 38.0499 19.1931H38.0546Z" fill="white"/>
</svg>
